<mxfile host="app.diagrams.net" modified="2023-02-20T16:31:11.585Z" agent="5.0 (X11; Linux x86_64) AppleWebKit/537.36 (KHTML, like Gecko) Chrome/109.0.0.0 Safari/537.36 Edg/109.0.1518.52" etag="8P0aNIxIq9H1WOnnHaje" version="20.8.20" type="github" pages="4">
  <diagram id="QJjx0-fPxzvcmYibJWj1" name="Page-1">
    <mxGraphModel dx="1247" dy="804" grid="1" gridSize="10" guides="1" tooltips="1" connect="1" arrows="1" fold="1" page="1" pageScale="1" pageWidth="827" pageHeight="583" math="0" shadow="0">
      <root>
        <mxCell id="0" />
        <mxCell id="1" parent="0" />
        <mxCell id="_o_R5gsRrXcbEbTNxi-p-7" value="" style="edgeStyle=orthogonalEdgeStyle;rounded=0;orthogonalLoop=1;jettySize=auto;html=1;" edge="1" parent="1" source="_o_R5gsRrXcbEbTNxi-p-1" target="_o_R5gsRrXcbEbTNxi-p-2">
          <mxGeometry relative="1" as="geometry" />
        </mxCell>
        <mxCell id="_o_R5gsRrXcbEbTNxi-p-1" value="conv2d&lt;br&gt;kernel size = 3&lt;br&gt;stride = 1&lt;br&gt;padding = 0" style="whiteSpace=wrap;html=1;aspect=fixed;fillColor=#fff2cc;strokeColor=#d6b656;" vertex="1" parent="1">
          <mxGeometry x="40" y="200" width="120" height="120" as="geometry" />
        </mxCell>
        <mxCell id="_o_R5gsRrXcbEbTNxi-p-8" value="" style="edgeStyle=orthogonalEdgeStyle;rounded=0;orthogonalLoop=1;jettySize=auto;html=1;" edge="1" parent="1" source="_o_R5gsRrXcbEbTNxi-p-2" target="_o_R5gsRrXcbEbTNxi-p-3">
          <mxGeometry relative="1" as="geometry" />
        </mxCell>
        <mxCell id="_o_R5gsRrXcbEbTNxi-p-2" value="Group Norm&lt;br&gt;+&lt;br&gt;ReLU" style="whiteSpace=wrap;html=1;aspect=fixed;fillColor=#fff2cc;strokeColor=#d6b656;" vertex="1" parent="1">
          <mxGeometry x="200" y="200" width="120" height="120" as="geometry" />
        </mxCell>
        <mxCell id="_o_R5gsRrXcbEbTNxi-p-9" value="" style="edgeStyle=orthogonalEdgeStyle;rounded=0;orthogonalLoop=1;jettySize=auto;html=1;" edge="1" parent="1" source="_o_R5gsRrXcbEbTNxi-p-3" target="_o_R5gsRrXcbEbTNxi-p-4">
          <mxGeometry relative="1" as="geometry" />
        </mxCell>
        <mxCell id="_o_R5gsRrXcbEbTNxi-p-3" value="conv2d&lt;br&gt;kernel size = 4&lt;br&gt;stride = 2&lt;br&gt;padding = 1" style="whiteSpace=wrap;html=1;aspect=fixed;fillColor=#fff2cc;strokeColor=#d6b656;" vertex="1" parent="1">
          <mxGeometry x="360" y="200" width="120" height="120" as="geometry" />
        </mxCell>
        <mxCell id="_o_R5gsRrXcbEbTNxi-p-10" value="" style="edgeStyle=orthogonalEdgeStyle;rounded=0;orthogonalLoop=1;jettySize=auto;html=1;" edge="1" parent="1" source="_o_R5gsRrXcbEbTNxi-p-4" target="_o_R5gsRrXcbEbTNxi-p-5">
          <mxGeometry relative="1" as="geometry" />
        </mxCell>
        <mxCell id="_o_R5gsRrXcbEbTNxi-p-4" value="Group Norm&lt;br&gt;+&lt;br&gt;ReLU" style="whiteSpace=wrap;html=1;aspect=fixed;fillColor=#fff2cc;strokeColor=#d6b656;" vertex="1" parent="1">
          <mxGeometry x="520" y="200" width="120" height="120" as="geometry" />
        </mxCell>
        <mxCell id="_o_R5gsRrXcbEbTNxi-p-14" value="" style="edgeStyle=orthogonalEdgeStyle;rounded=0;orthogonalLoop=1;jettySize=auto;html=1;" edge="1" parent="1" source="_o_R5gsRrXcbEbTNxi-p-5" target="_o_R5gsRrXcbEbTNxi-p-13">
          <mxGeometry relative="1" as="geometry" />
        </mxCell>
        <mxCell id="_o_R5gsRrXcbEbTNxi-p-5" value="conv2d&lt;br&gt;kernel size = 4&lt;br&gt;stride = 2&lt;br&gt;padding = 1" style="whiteSpace=wrap;html=1;aspect=fixed;fillColor=#fff2cc;strokeColor=#d6b656;" vertex="1" parent="1">
          <mxGeometry x="680" y="200" width="120" height="120" as="geometry" />
        </mxCell>
        <mxCell id="_o_R5gsRrXcbEbTNxi-p-12" value="" style="edgeStyle=orthogonalEdgeStyle;rounded=0;orthogonalLoop=1;jettySize=auto;html=1;" edge="1" parent="1" source="_o_R5gsRrXcbEbTNxi-p-11" target="_o_R5gsRrXcbEbTNxi-p-1">
          <mxGeometry relative="1" as="geometry" />
        </mxCell>
        <mxCell id="_o_R5gsRrXcbEbTNxi-p-11" value="28 x 28 x 1" style="whiteSpace=wrap;html=1;aspect=fixed;fillColor=#fff2cc;strokeColor=#d6b656;" vertex="1" parent="1">
          <mxGeometry x="40" y="40" width="120" height="120" as="geometry" />
        </mxCell>
        <mxCell id="_o_R5gsRrXcbEbTNxi-p-13" value="6 x 6 x 64" style="whiteSpace=wrap;html=1;aspect=fixed;fillColor=#fff2cc;strokeColor=#d6b656;" vertex="1" parent="1">
          <mxGeometry x="680" y="360" width="120" height="120" as="geometry" />
        </mxCell>
      </root>
    </mxGraphModel>
  </diagram>
  <diagram id="erSVC5_0N6SS075Yov0o" name="Page-2">
    <mxGraphModel dx="1434" dy="925" grid="1" gridSize="10" guides="1" tooltips="1" connect="1" arrows="1" fold="1" page="1" pageScale="1" pageWidth="850" pageHeight="1100" math="0" shadow="0">
      <root>
        <mxCell id="0" />
        <mxCell id="1" parent="0" />
        <mxCell id="EllPrdF6UwWhLENMH0YT-1" value="" style="edgeStyle=orthogonalEdgeStyle;rounded=0;orthogonalLoop=1;jettySize=auto;html=1;" edge="1" parent="1" source="EllPrdF6UwWhLENMH0YT-2" target="EllPrdF6UwWhLENMH0YT-4">
          <mxGeometry relative="1" as="geometry" />
        </mxCell>
        <mxCell id="EllPrdF6UwWhLENMH0YT-2" value="Group Norm&lt;br&gt;+&lt;br&gt;ReLU" style="whiteSpace=wrap;html=1;aspect=fixed;fillColor=#fff2cc;strokeColor=#d6b656;" vertex="1" parent="1">
          <mxGeometry x="40" y="320" width="120" height="120" as="geometry" />
        </mxCell>
        <mxCell id="EllPrdF6UwWhLENMH0YT-3" value="" style="edgeStyle=orthogonalEdgeStyle;rounded=0;orthogonalLoop=1;jettySize=auto;html=1;" edge="1" parent="1" source="EllPrdF6UwWhLENMH0YT-4" target="EllPrdF6UwWhLENMH0YT-6">
          <mxGeometry relative="1" as="geometry" />
        </mxCell>
        <mxCell id="EllPrdF6UwWhLENMH0YT-4" value="conv2d&lt;br&gt;kernel size = 3&lt;br&gt;stride = 1&lt;br&gt;padding = 1" style="whiteSpace=wrap;html=1;aspect=fixed;fillColor=#fff2cc;strokeColor=#d6b656;" vertex="1" parent="1">
          <mxGeometry x="200" y="320" width="120" height="120" as="geometry" />
        </mxCell>
        <mxCell id="EllPrdF6UwWhLENMH0YT-5" value="" style="edgeStyle=orthogonalEdgeStyle;rounded=0;orthogonalLoop=1;jettySize=auto;html=1;" edge="1" parent="1" source="EllPrdF6UwWhLENMH0YT-6" target="EllPrdF6UwWhLENMH0YT-8">
          <mxGeometry relative="1" as="geometry" />
        </mxCell>
        <mxCell id="EllPrdF6UwWhLENMH0YT-6" value="Group Norm&lt;br&gt;+&lt;br&gt;ReLU" style="whiteSpace=wrap;html=1;aspect=fixed;fillColor=#fff2cc;strokeColor=#d6b656;" vertex="1" parent="1">
          <mxGeometry x="360" y="320" width="120" height="120" as="geometry" />
        </mxCell>
        <mxCell id="EllPrdF6UwWhLENMH0YT-7" value="" style="edgeStyle=orthogonalEdgeStyle;rounded=0;orthogonalLoop=1;jettySize=auto;html=1;" edge="1" parent="1" source="EllPrdF6UwWhLENMH0YT-8">
          <mxGeometry relative="1" as="geometry">
            <mxPoint x="680" y="380" as="targetPoint" />
          </mxGeometry>
        </mxCell>
        <mxCell id="EllPrdF6UwWhLENMH0YT-8" value="conv2d&lt;br&gt;kernel_size = 3&lt;br&gt;stride = 1&lt;br&gt;padding = 1" style="whiteSpace=wrap;html=1;aspect=fixed;fillColor=#fff2cc;strokeColor=#d6b656;" vertex="1" parent="1">
          <mxGeometry x="520" y="320" width="120" height="120" as="geometry" />
        </mxCell>
        <mxCell id="EllPrdF6UwWhLENMH0YT-11" value="" style="edgeStyle=orthogonalEdgeStyle;rounded=0;orthogonalLoop=1;jettySize=auto;html=1;" edge="1" parent="1" source="EllPrdF6UwWhLENMH0YT-12" target="EllPrdF6UwWhLENMH0YT-2">
          <mxGeometry relative="1" as="geometry" />
        </mxCell>
        <mxCell id="EllPrdF6UwWhLENMH0YT-14" style="edgeStyle=orthogonalEdgeStyle;rounded=0;orthogonalLoop=1;jettySize=auto;html=1;" edge="1" parent="1" source="EllPrdF6UwWhLENMH0YT-12">
          <mxGeometry relative="1" as="geometry">
            <mxPoint x="660" y="380" as="targetPoint" />
          </mxGeometry>
        </mxCell>
        <mxCell id="EllPrdF6UwWhLENMH0YT-12" value="6 x 6 x 64" style="whiteSpace=wrap;html=1;aspect=fixed;fillColor=#fff2cc;strokeColor=#d6b656;" vertex="1" parent="1">
          <mxGeometry x="40" y="160" width="120" height="120" as="geometry" />
        </mxCell>
        <mxCell id="EllPrdF6UwWhLENMH0YT-13" value="6 x 6 x 64" style="whiteSpace=wrap;html=1;aspect=fixed;fillColor=#fff2cc;strokeColor=#d6b656;" vertex="1" parent="1">
          <mxGeometry x="680" y="320" width="120" height="120" as="geometry" />
        </mxCell>
      </root>
    </mxGraphModel>
  </diagram>
  <diagram id="Yzn0OstWvBHOYA6d-II7" name="Page-3">
    <mxGraphModel dx="1434" dy="925" grid="1" gridSize="10" guides="1" tooltips="1" connect="1" arrows="1" fold="1" page="1" pageScale="1" pageWidth="850" pageHeight="1100" math="0" shadow="0">
      <root>
        <mxCell id="0" />
        <mxCell id="1" parent="0" />
        <mxCell id="48GXrg9rrTDqAHJR1tda-1" value="" style="edgeStyle=orthogonalEdgeStyle;rounded=0;orthogonalLoop=1;jettySize=auto;html=1;" edge="1" parent="1" source="48GXrg9rrTDqAHJR1tda-2" target="48GXrg9rrTDqAHJR1tda-4">
          <mxGeometry relative="1" as="geometry" />
        </mxCell>
        <mxCell id="48GXrg9rrTDqAHJR1tda-2" value="Group Norm&lt;br&gt;+&lt;br&gt;ReLU" style="whiteSpace=wrap;html=1;aspect=fixed;fillColor=#fff2cc;strokeColor=#d6b656;" vertex="1" parent="1">
          <mxGeometry x="40" y="320" width="120" height="120" as="geometry" />
        </mxCell>
        <mxCell id="48GXrg9rrTDqAHJR1tda-3" value="" style="edgeStyle=orthogonalEdgeStyle;rounded=0;orthogonalLoop=1;jettySize=auto;html=1;" edge="1" parent="1" source="48GXrg9rrTDqAHJR1tda-4" target="48GXrg9rrTDqAHJR1tda-6">
          <mxGeometry relative="1" as="geometry" />
        </mxCell>
        <mxCell id="48GXrg9rrTDqAHJR1tda-4" value="conv2d&lt;br&gt;kernel size = 3&lt;br&gt;stride = 1&lt;br&gt;padding = 1" style="whiteSpace=wrap;html=1;aspect=fixed;fillColor=#fff2cc;strokeColor=#d6b656;" vertex="1" parent="1">
          <mxGeometry x="200" y="320" width="120" height="120" as="geometry" />
        </mxCell>
        <mxCell id="48GXrg9rrTDqAHJR1tda-5" value="" style="edgeStyle=orthogonalEdgeStyle;rounded=0;orthogonalLoop=1;jettySize=auto;html=1;" edge="1" parent="1" source="48GXrg9rrTDqAHJR1tda-6" target="48GXrg9rrTDqAHJR1tda-8">
          <mxGeometry relative="1" as="geometry" />
        </mxCell>
        <mxCell id="48GXrg9rrTDqAHJR1tda-6" value="Group Norm&lt;br&gt;+&lt;br&gt;ReLU" style="whiteSpace=wrap;html=1;aspect=fixed;fillColor=#fff2cc;strokeColor=#d6b656;" vertex="1" parent="1">
          <mxGeometry x="360" y="320" width="120" height="120" as="geometry" />
        </mxCell>
        <mxCell id="48GXrg9rrTDqAHJR1tda-7" value="" style="edgeStyle=orthogonalEdgeStyle;rounded=0;orthogonalLoop=1;jettySize=auto;html=1;" edge="1" parent="1" source="48GXrg9rrTDqAHJR1tda-8">
          <mxGeometry relative="1" as="geometry">
            <mxPoint x="680" y="380" as="targetPoint" />
          </mxGeometry>
        </mxCell>
        <mxCell id="48GXrg9rrTDqAHJR1tda-8" value="conv2d&lt;br&gt;kernel_size = 3&lt;br&gt;stride = 1&lt;br&gt;padding = 1" style="whiteSpace=wrap;html=1;aspect=fixed;fillColor=#fff2cc;strokeColor=#d6b656;" vertex="1" parent="1">
          <mxGeometry x="520" y="320" width="120" height="120" as="geometry" />
        </mxCell>
        <mxCell id="48GXrg9rrTDqAHJR1tda-9" value="" style="edgeStyle=orthogonalEdgeStyle;rounded=0;orthogonalLoop=1;jettySize=auto;html=1;" edge="1" parent="1" target="48GXrg9rrTDqAHJR1tda-2">
          <mxGeometry relative="1" as="geometry">
            <mxPoint x="100" y="280" as="sourcePoint" />
          </mxGeometry>
        </mxCell>
        <mxCell id="48GXrg9rrTDqAHJR1tda-25" value="" style="edgeStyle=orthogonalEdgeStyle;rounded=0;orthogonalLoop=1;jettySize=auto;html=1;fontSize=17;" edge="1" parent="1" source="48GXrg9rrTDqAHJR1tda-12" target="48GXrg9rrTDqAHJR1tda-24">
          <mxGeometry relative="1" as="geometry" />
        </mxCell>
        <mxCell id="48GXrg9rrTDqAHJR1tda-12" value="Group Norm" style="whiteSpace=wrap;html=1;aspect=fixed;fillColor=#fff2cc;strokeColor=#d6b656;" vertex="1" parent="1">
          <mxGeometry x="680" y="320" width="120" height="120" as="geometry" />
        </mxCell>
        <mxCell id="48GXrg9rrTDqAHJR1tda-13" value="6 x 6 x 64" style="whiteSpace=wrap;html=1;aspect=fixed;fillColor=#fff2cc;strokeColor=#d6b656;" vertex="1" parent="1">
          <mxGeometry x="40" y="160" width="120" height="120" as="geometry" />
        </mxCell>
        <mxCell id="48GXrg9rrTDqAHJR1tda-22" style="edgeStyle=orthogonalEdgeStyle;rounded=0;orthogonalLoop=1;jettySize=auto;html=1;fontSize=17;" edge="1" parent="1" source="48GXrg9rrTDqAHJR1tda-21">
          <mxGeometry relative="1" as="geometry">
            <mxPoint x="180" y="380" as="targetPoint" />
          </mxGeometry>
        </mxCell>
        <mxCell id="48GXrg9rrTDqAHJR1tda-23" style="edgeStyle=orthogonalEdgeStyle;rounded=0;orthogonalLoop=1;jettySize=auto;html=1;fontSize=17;" edge="1" parent="1" source="48GXrg9rrTDqAHJR1tda-21">
          <mxGeometry relative="1" as="geometry">
            <mxPoint x="500" y="380" as="targetPoint" />
          </mxGeometry>
        </mxCell>
        <mxCell id="48GXrg9rrTDqAHJR1tda-21" value="t channel&lt;br&gt;6 x 6 x 1" style="whiteSpace=wrap;html=1;aspect=fixed;fillColor=#fff2cc;strokeColor=#d6b656;" vertex="1" parent="1">
          <mxGeometry x="40" y="480" width="120" height="120" as="geometry" />
        </mxCell>
        <mxCell id="48GXrg9rrTDqAHJR1tda-24" value="6 x 6 x 64" style="whiteSpace=wrap;html=1;aspect=fixed;fillColor=#fff2cc;strokeColor=#d6b656;" vertex="1" parent="1">
          <mxGeometry x="680" y="480" width="120" height="120" as="geometry" />
        </mxCell>
        <mxCell id="O2OAhkb4t3rZNMJxjZ4T-1" value="Text" style="text;html=1;align=center;verticalAlign=middle;resizable=0;points=[];autosize=1;strokeColor=none;fillColor=none;fontSize=17;" vertex="1" parent="1">
          <mxGeometry x="190" y="480" width="50" height="30" as="geometry" />
        </mxCell>
      </root>
    </mxGraphModel>
  </diagram>
  <diagram id="YbgZSKoU3DcwyA7OoD9v" name="Page-4">
    <mxGraphModel dx="1434" dy="925" grid="1" gridSize="10" guides="1" tooltips="1" connect="1" arrows="1" fold="1" page="1" pageScale="1" pageWidth="850" pageHeight="1100" math="0" shadow="0">
      <root>
        <mxCell id="0" />
        <mxCell id="1" parent="0" />
        <mxCell id="rMEtDUbbRwAVNfXTKoLP-1" value="" style="edgeStyle=orthogonalEdgeStyle;rounded=0;orthogonalLoop=1;jettySize=auto;html=1;" edge="1" parent="1" source="rMEtDUbbRwAVNfXTKoLP-2" target="rMEtDUbbRwAVNfXTKoLP-4">
          <mxGeometry relative="1" as="geometry" />
        </mxCell>
        <mxCell id="rMEtDUbbRwAVNfXTKoLP-2" value="Group Norm&lt;br&gt;+&lt;br&gt;ReLU" style="whiteSpace=wrap;html=1;aspect=fixed;fillColor=#fff2cc;strokeColor=#d6b656;" vertex="1" parent="1">
          <mxGeometry x="120" y="320" width="120" height="120" as="geometry" />
        </mxCell>
        <mxCell id="rMEtDUbbRwAVNfXTKoLP-3" value="" style="edgeStyle=orthogonalEdgeStyle;rounded=0;orthogonalLoop=1;jettySize=auto;html=1;" edge="1" parent="1" source="rMEtDUbbRwAVNfXTKoLP-4" target="rMEtDUbbRwAVNfXTKoLP-6">
          <mxGeometry relative="1" as="geometry" />
        </mxCell>
        <mxCell id="rMEtDUbbRwAVNfXTKoLP-4" value="Adaptive Average Pool" style="whiteSpace=wrap;html=1;aspect=fixed;fillColor=#fff2cc;strokeColor=#d6b656;" vertex="1" parent="1">
          <mxGeometry x="280" y="320" width="120" height="120" as="geometry" />
        </mxCell>
        <mxCell id="rMEtDUbbRwAVNfXTKoLP-5" value="" style="edgeStyle=orthogonalEdgeStyle;rounded=0;orthogonalLoop=1;jettySize=auto;html=1;" edge="1" parent="1" source="rMEtDUbbRwAVNfXTKoLP-6" target="rMEtDUbbRwAVNfXTKoLP-8">
          <mxGeometry relative="1" as="geometry" />
        </mxCell>
        <mxCell id="rMEtDUbbRwAVNfXTKoLP-6" value="Flatten" style="whiteSpace=wrap;html=1;aspect=fixed;fillColor=#fff2cc;strokeColor=#d6b656;" vertex="1" parent="1">
          <mxGeometry x="440" y="320" width="120" height="120" as="geometry" />
        </mxCell>
        <mxCell id="rMEtDUbbRwAVNfXTKoLP-8" value="Linear&lt;br&gt;64 x 10" style="whiteSpace=wrap;html=1;aspect=fixed;fillColor=#fff2cc;strokeColor=#d6b656;" vertex="1" parent="1">
          <mxGeometry x="600" y="320" width="120" height="120" as="geometry" />
        </mxCell>
        <mxCell id="rMEtDUbbRwAVNfXTKoLP-11" value="" style="edgeStyle=orthogonalEdgeStyle;rounded=0;orthogonalLoop=1;jettySize=auto;html=1;" edge="1" parent="1" source="rMEtDUbbRwAVNfXTKoLP-12" target="rMEtDUbbRwAVNfXTKoLP-2">
          <mxGeometry relative="1" as="geometry" />
        </mxCell>
        <mxCell id="rMEtDUbbRwAVNfXTKoLP-12" value="6 x 6 x 64" style="whiteSpace=wrap;html=1;aspect=fixed;fillColor=#fff2cc;strokeColor=#d6b656;" vertex="1" parent="1">
          <mxGeometry x="120" y="160" width="120" height="120" as="geometry" />
        </mxCell>
      </root>
    </mxGraphModel>
  </diagram>
</mxfile>
